name Walk2.mot
datacolumns 19
datarows 22
range 1.58100000 1.60200000
endheader

                time	   L_ground_force_vx	   L_ground_force_vy	   L_ground_force_vz	   L_ground_force_px	   L_ground_force_py	   L_ground_force_pz	   R_ground_force_vx	   R_ground_force_vy	   R_ground_force_vz	   R_ground_force_px	   R_ground_force_py	   R_ground_force_pz	   L_ground_torque_x	   L_ground_torque_y	   L_ground_torque_z	   R_ground_torque_x	   R_ground_torque_y	   R_ground_torque_z	
          1.58100000	        -29.33557719	        432.19491747	        -29.25059834	          0.55940966	          0.00000000	          0.06100651	          0.00000000	          0.00000000	          0.00000000	          0.00000000	          0.00000000	          0.00000000	          0.00000000	          2.02110508	          0.00000000	          0.00000000	          0.00000000	          0.00000000	
          1.58200000	        -29.11864085	        431.45157531	        -28.81125259	          0.56012371	          0.00000000	          0.06090310	          0.00000000	          0.00000000	          0.00000000	          0.00000000	          0.00000000	          0.00000000	          0.00000000	          1.97247168	          0.00000000	          0.00000000	          0.00000000	          0.00000000	
          1.58300000	        -28.90131489	        430.81375925	        -28.35590109	          0.56074278	          0.00000000	          0.06084290	          0.00000000	          0.00000000	          0.00000000	          0.00000000	          0.00000000	          0.00000000	          0.00000000	          1.92754480	          0.00000000	          0.00000000	          0.00000000	          0.00000000	
          1.58400000	        -28.68081478	        430.26974429	        -27.90508062	          0.56130876	          0.00000000	          0.06082413	          0.00000000	          0.00000000	          0.00000000	          0.00000000	          0.00000000	          0.00000000	          0.00000000	          1.89265836	          0.00000000	          0.00000000	          0.00000000	          0.00000000	
          1.58500000	        -28.46268941	        429.80929945	        -27.47322016	          0.56187416	          0.00000000	          0.06082989	          0.00000000	          0.00000000	          0.00000000	          0.00000000	          0.00000000	          0.00000000	          0.00000000	          1.86370793	          0.00000000	          0.00000000	          0.00000000	          0.00000000	
          1.58600000	        -28.25077286	        429.40985838	        -27.05775263	          0.56244312	          0.00000000	          0.06084496	          0.00000000	          0.00000000	          0.00000000	          0.00000000	          0.00000000	          0.00000000	          0.00000000	          1.83462051	          0.00000000	          0.00000000	          0.00000000	          0.00000000	
          1.58700000	        -28.03686851	        429.06219931	        -26.65151911	          0.56297048	          0.00000000	          0.06085728	          0.00000000	          0.00000000	          0.00000000	          0.00000000	          0.00000000	          0.00000000	          0.00000000	          1.80683624	          0.00000000	          0.00000000	          0.00000000	          0.00000000	
          1.58800000	        -27.80639591	        428.77198726	        -26.25725736	          0.56341032	          0.00000000	          0.06085191	          0.00000000	          0.00000000	          0.00000000	          0.00000000	          0.00000000	          0.00000000	          0.00000000	          1.78415287	          0.00000000	          0.00000000	          0.00000000	          0.00000000	
          1.58900000	        -27.55180690	        428.53692639	        -25.88267823	          0.56376548	          0.00000000	          0.06081762	          0.00000000	          0.00000000	          0.00000000	          0.00000000	          0.00000000	          0.00000000	          0.00000000	          1.76278015	          0.00000000	          0.00000000	          0.00000000	          0.00000000	
          1.59000000	        -27.27139272	        428.34236996	        -25.52613643	          0.56409875	          0.00000000	          0.06075122	          0.00000000	          0.00000000	          0.00000000	          0.00000000	          0.00000000	          0.00000000	          0.00000000	          1.73326188	          0.00000000	          0.00000000	          0.00000000	          0.00000000	
          1.59100000	        -26.95994626	        428.18053824	        -25.17428056	          0.56447885	          0.00000000	          0.06065926	          0.00000000	          0.00000000	          0.00000000	          0.00000000	          0.00000000	          0.00000000	          0.00000000	          1.69024079	          0.00000000	          0.00000000	          0.00000000	          0.00000000	
          1.59200000	        -26.61022906	        428.05763110	        -24.81629337	          0.56491081	          0.00000000	          0.06055630	          0.00000000	          0.00000000	          0.00000000	          0.00000000	          0.00000000	          0.00000000	          0.00000000	          1.63582130	          0.00000000	          0.00000000	          0.00000000	          0.00000000	
          1.59300000	        -26.22557493	        427.97127861	        -24.45571095	          0.56533907	          0.00000000	          0.06044670	          0.00000000	          0.00000000	          0.00000000	          0.00000000	          0.00000000	          0.00000000	          0.00000000	          1.57540422	          0.00000000	          0.00000000	          0.00000000	          0.00000000	
          1.59400000	        -25.83054110	        427.90454093	        -24.10651806	          0.56571301	          0.00000000	          0.06031924	          0.00000000	          0.00000000	          0.00000000	          0.00000000	          0.00000000	          0.00000000	          0.00000000	          1.51297835	          0.00000000	          0.00000000	          0.00000000	          0.00000000	
          1.59500000	        -25.46208299	        427.85047546	        -23.78512334	          0.56602072	          0.00000000	          0.06017627	          0.00000000	          0.00000000	          0.00000000	          0.00000000	          0.00000000	          0.00000000	          0.00000000	          1.44949416	          0.00000000	          0.00000000	          0.00000000	          0.00000000	
          1.59600000	        -25.14227007	        427.82277499	        -23.50422531	          0.56627141	          0.00000000	          0.06005253	          0.00000000	          0.00000000	          0.00000000	          0.00000000	          0.00000000	          0.00000000	          0.00000000	          1.38498311	          0.00000000	          0.00000000	          0.00000000	          0.00000000	
          1.59700000	        -24.86590946	        427.85276430	        -23.26484528	          0.56648055	          0.00000000	          0.06000054	          0.00000000	          0.00000000	          0.00000000	          0.00000000	          0.00000000	          0.00000000	          0.00000000	          1.32123676	          0.00000000	          0.00000000	          0.00000000	          0.00000000	
          1.59800000	        -24.61490181	        427.97583538	        -23.05595919	          0.56666291	          0.00000000	          0.06005616	          0.00000000	          0.00000000	          0.00000000	          0.00000000	          0.00000000	          0.00000000	          0.00000000	          1.26135382	          0.00000000	          0.00000000	          0.00000000	          0.00000000	
          1.59900000	        -24.36744329	        428.18207821	        -22.86249505	          0.56682343	          0.00000000	          0.06019242	          0.00000000	          0.00000000	          0.00000000	          0.00000000	          0.00000000	          0.00000000	          0.00000000	          1.20793176	          0.00000000	          0.00000000	          0.00000000	          0.00000000	
          1.60000000	        -24.09576990	        428.38586324	        -22.66785232	          0.56697166	          0.00000000	          0.06031274	          0.00000000	          0.00000000	          0.00000000	          0.00000000	          0.00000000	          0.00000000	          0.00000000	          1.16224449	          0.00000000	          0.00000000	          0.00000000	          0.00000000	
          1.60100000	        -23.77705586	        428.48503718	        -22.45429314	          0.56714709	          0.00000000	          0.06032583	          0.00000000	          0.00000000	          0.00000000	          0.00000000	          0.00000000	          0.00000000	          0.00000000	          1.12357219	          0.00000000	          0.00000000	          0.00000000	          0.00000000	
          1.60200000	        -23.40951808	        428.44641123	        -22.21141147	          0.56740159	          0.00000000	          0.06022504	          0.00000000	          0.00000000	          0.00000000	          0.00000000	          0.00000000	          0.00000000	          0.00000000	          1.08923347	          0.00000000	          0.00000000	          0.00000000	          0.00000000	
